<svg width="30" height="30" fill="none" xmlns="http://www.w3.org/2000/svg"><g clip-rule="evenodd"><path d="M15 29c7.732 0 14-6.268 14-14S22.732 1 15 1 1 7.268 1 15s6.268 14 14 14z" stroke="#fff"/><path fill-rule="evenodd" d="M12.539 17.366s4.821 4.461 7.538 3.055c0 0 .751-.624.824-1.237.073-.612-.551-1.023-.792-1.163-.577-.336-1.171-.649-1.76-.967-.186-.101-.388-.215-.608-.16a2.071 2.071 0 00-.375.125c-.414.198-.754.384-1.203.57 0 0-.459-.136-2.17-1.715-1.817-1.678-1.571-2.302-1.571-2.302.236-.305.451-.625.63-.963.078-.145.184-.285.228-.444.046-.159-.048-.272-.126-.412-.175-.312-.36-.619-.554-.922-.333-.523-.673-1.069-1.098-1.536-.045-.049-.149-.195-.235-.19-.944.059-1.875.92-1.875.92-1.462 2.438 3.147 7.34 3.147 7.34z" fill="#fff"/></g></svg>